<?xml version="1.0" encoding="UTF-8" standalone="no"?>
<!-- Created with Inkscape (http://www.inkscape.org/) -->

<svg
   width="210mm"
   height="297mm"
   viewBox="0 0 210 297"
   version="1.1"
   id="svg5"
   inkscape:version="1.1.2 (0a00cf5339, 2022-02-04, custom)"
   sodipodi:docname="O.svg"
   xmlns:inkscape="http://www.inkscape.org/namespaces/inkscape"
   xmlns:sodipodi="http://sodipodi.sourceforge.net/DTD/sodipodi-0.dtd"
   xmlns="http://www.w3.org/2000/svg"
   xmlns:svg="http://www.w3.org/2000/svg">
  <sodipodi:namedview
     id="namedview7"
     pagecolor="#505050"
     bordercolor="#eeeeee"
     borderopacity="1"
     inkscape:pageshadow="0"
     inkscape:pageopacity="0"
     inkscape:pagecheckerboard="0"
     inkscape:document-units="mm"
     showgrid="false"
     inkscape:zoom="0.64052329"
     inkscape:cx="231.84169"
     inkscape:cy="-131.14277"
     inkscape:window-width="1500"
     inkscape:window-height="919"
     inkscape:window-x="0"
     inkscape:window-y="0"
     inkscape:window-maximized="1"
     inkscape:current-layer="layer1" />
  <defs
     id="defs2" />
  <g
     inkscape:label="Layer 1"
     inkscape:groupmode="layer"
     id="layer1">
    <path
       id="path31"
       style="fill:#ffffff;fill-rule:evenodd;stroke-width:0.248936"
       d="M 24.999999,0 A 24.99995,25.000189 0 0 0 0,25.000247 24.99995,25.000189 0 0 0 24.999999,50 24.99995,25.000189 0 0 0 50,25.000247 24.99995,25.000189 0 0 0 24.999999,0 Z m 0,3.6941999 A 21.305791,21.305994 0 0 1 46.305845,25.000247 21.305791,21.305994 0 0 1 24.999999,46.30581 21.305791,21.305994 0 0 1 3.6941552,25.000247 21.305791,21.305994 0 0 1 24.999999,3.6941999 Z"
       inkscape:export-filename="/home/mateusz/code/godot/TicTacToe/resources/O.png"
       inkscape:export-xdpi="76.199997"
       inkscape:export-ydpi="76.199997" />
    <rect
       style="fill:#ffffff;stroke-width:0.264583"
       id="rect559"
       width="4.5"
       height="65"
       x="33.105339"
       y="38.210678"
       transform="rotate(-45)"
       inkscape:export-filename="/home/mateusz/code/godot/TicTacToe/resources/X.png"
       inkscape:export-xdpi="77.527397"
       inkscape:export-ydpi="77.527397" />
    <rect
       style="fill:#ffffff;stroke-width:0.264583"
       id="rect969"
       width="4.5"
       height="65"
       x="68.460678"
       y="-67.855339"
       transform="rotate(45)"
       inkscape:export-filename="/home/mateusz/code/godot/TicTacToe/resources/X.png"
       inkscape:export-xdpi="77.527397"
       inkscape:export-ydpi="77.527397" />
  </g>
</svg>
